<mxfile host="65bd71144e">
    <diagram id="mph6prPXKgcVzb7lsd9D" name="Page-1">
        <mxGraphModel dx="683" dy="1124" grid="1" gridSize="10" guides="1" tooltips="1" connect="1" arrows="1" fold="1" page="1" pageScale="1" pageWidth="850" pageHeight="1100" math="0" shadow="0">
            <root>
                <mxCell id="0"/>
                <mxCell id="1" parent="0"/>
                <mxCell id="3" value="" style="whiteSpace=wrap;html=1;aspect=fixed;fillColor=#e3c800;fontColor=#000000;strokeColor=#B09500;fontStyle=1;fontSize=25;" parent="1" vertex="1">
                    <mxGeometry x="210" y="360" width="80" height="80" as="geometry"/>
                </mxCell>
                <mxCell id="4" value="R8" style="whiteSpace=wrap;html=1;aspect=fixed;fillColor=#e3c800;fontColor=#000000;strokeColor=#B09500;fontStyle=1;fontSize=25;" parent="1" vertex="1">
                    <mxGeometry x="300" y="360" width="80" height="80" as="geometry"/>
                </mxCell>
                <mxCell id="5" value="" style="whiteSpace=wrap;html=1;aspect=fixed;fillColor=#e51400;fontColor=#ffffff;strokeColor=#B20000;fontStyle=1;fontSize=25;" parent="1" vertex="1">
                    <mxGeometry x="390" y="360" width="80" height="80" as="geometry"/>
                </mxCell>
                <mxCell id="6" value="" style="whiteSpace=wrap;html=1;aspect=fixed;fillColor=#e51400;fontColor=#ffffff;strokeColor=#B20000;fontStyle=1;fontSize=25;" parent="1" vertex="1">
                    <mxGeometry x="480" y="360" width="80" height="80" as="geometry"/>
                </mxCell>
                <mxCell id="7" value="&lt;span style=&quot;color: rgb(0, 0, 0);&quot;&gt;R5&lt;br&gt;&lt;/span&gt;" style="whiteSpace=wrap;html=1;aspect=fixed;fillColor=#e51400;fontColor=#ffffff;strokeColor=#B20000;fontStyle=1;fontSize=25;" parent="1" vertex="1">
                    <mxGeometry x="570" y="360" width="80" height="80" as="geometry"/>
                </mxCell>
                <mxCell id="8" value="" style="whiteSpace=wrap;html=1;aspect=fixed;fillColor=#e3c800;fontColor=#000000;strokeColor=#B09500;fontStyle=1;fontSize=25;" parent="1" vertex="1">
                    <mxGeometry x="120" y="360" width="80" height="80" as="geometry"/>
                </mxCell>
                <mxCell id="9" value="" style="whiteSpace=wrap;html=1;aspect=fixed;fillColor=#e3c800;fontColor=#000000;strokeColor=#B09500;fontStyle=1;fontSize=25;" parent="1" vertex="1">
                    <mxGeometry x="210" y="450" width="80" height="80" as="geometry"/>
                </mxCell>
                <mxCell id="10" value="" style="whiteSpace=wrap;html=1;aspect=fixed;fillColor=#e3c800;fontColor=#000000;strokeColor=#B09500;fontStyle=1;fontSize=25;" parent="1" vertex="1">
                    <mxGeometry x="300" y="450" width="80" height="80" as="geometry"/>
                </mxCell>
                <mxCell id="11" value="R10" style="whiteSpace=wrap;html=1;aspect=fixed;fillColor=#e3c800;fontColor=#000000;strokeColor=#B09500;fontStyle=1;fontSize=25;" parent="1" vertex="1">
                    <mxGeometry x="390" y="450" width="80" height="80" as="geometry"/>
                </mxCell>
                <mxCell id="12" value="" style="whiteSpace=wrap;html=1;aspect=fixed;fillColor=#e51400;fontColor=#ffffff;strokeColor=#B20000;fontStyle=1;fontSize=25;" parent="1" vertex="1">
                    <mxGeometry x="480" y="450" width="80" height="80" as="geometry"/>
                </mxCell>
                <mxCell id="13" value="" style="whiteSpace=wrap;html=1;aspect=fixed;fillColor=#e51400;fontColor=#ffffff;strokeColor=#B20000;fontStyle=1;fontSize=25;" parent="1" vertex="1">
                    <mxGeometry x="570" y="450" width="80" height="80" as="geometry"/>
                </mxCell>
                <mxCell id="14" value="" style="whiteSpace=wrap;html=1;aspect=fixed;fillColor=#60a917;fontColor=#ffffff;strokeColor=#2D7600;fontStyle=1;fontSize=25;" parent="1" vertex="1">
                    <mxGeometry x="120" y="450" width="80" height="80" as="geometry"/>
                </mxCell>
                <mxCell id="21" value="" style="whiteSpace=wrap;html=1;aspect=fixed;fillColor=#60a917;fontColor=#ffffff;strokeColor=#2D7600;fontStyle=1;fontSize=25;" parent="1" vertex="1">
                    <mxGeometry x="210" y="540" width="80" height="80" as="geometry"/>
                </mxCell>
                <mxCell id="22" value="R6" style="whiteSpace=wrap;html=1;aspect=fixed;fillColor=#e3c800;fontColor=#000000;strokeColor=#B09500;fontStyle=1;fontSize=25;" parent="1" vertex="1">
                    <mxGeometry x="300" y="540" width="80" height="80" as="geometry"/>
                </mxCell>
                <mxCell id="23" value="" style="whiteSpace=wrap;html=1;aspect=fixed;fillColor=#e3c800;fontColor=#000000;strokeColor=#B09500;fontStyle=1;fontSize=25;" parent="1" vertex="1">
                    <mxGeometry x="390" y="540" width="80" height="80" as="geometry"/>
                </mxCell>
                <mxCell id="24" value="R1" style="whiteSpace=wrap;html=1;aspect=fixed;fillColor=#e3c800;fontColor=#000000;strokeColor=#B09500;fontStyle=1;fontSize=25;" parent="1" vertex="1">
                    <mxGeometry x="480" y="540" width="80" height="80" as="geometry"/>
                </mxCell>
                <mxCell id="25" value="&lt;span style=&quot;color: rgb(0, 0, 0);&quot;&gt;R2&lt;br&gt;&lt;/span&gt;&lt;span style=&quot;color: rgb(0, 0, 0);&quot;&gt;R3&lt;br&gt;R7&lt;br&gt;&lt;/span&gt;" style="whiteSpace=wrap;html=1;aspect=fixed;fillColor=#e51400;fontColor=#ffffff;strokeColor=#B20000;fontStyle=1;fontSize=25;" parent="1" vertex="1">
                    <mxGeometry x="570" y="540" width="80" height="80" as="geometry"/>
                </mxCell>
                <mxCell id="26" value="" style="whiteSpace=wrap;html=1;aspect=fixed;fillColor=#60a917;fontColor=#ffffff;strokeColor=#2D7600;fontStyle=1;fontSize=25;" parent="1" vertex="1">
                    <mxGeometry x="120" y="540" width="80" height="80" as="geometry"/>
                </mxCell>
                <mxCell id="27" value="" style="whiteSpace=wrap;html=1;aspect=fixed;fillColor=#60a917;fontColor=#ffffff;strokeColor=#2D7600;fontStyle=1;fontSize=25;" parent="1" vertex="1">
                    <mxGeometry x="210" y="630" width="80" height="80" as="geometry"/>
                </mxCell>
                <mxCell id="28" value="R11" style="whiteSpace=wrap;html=1;aspect=fixed;fillColor=#60a917;fontColor=#ffffff;strokeColor=#2D7600;fontStyle=1;fontSize=25;" parent="1" vertex="1">
                    <mxGeometry x="300" y="630" width="80" height="80" as="geometry"/>
                </mxCell>
                <mxCell id="29" value="R9" style="whiteSpace=wrap;html=1;aspect=fixed;fillColor=#e3c800;fontColor=#000000;strokeColor=#B09500;fontStyle=1;fontSize=25;" parent="1" vertex="1">
                    <mxGeometry x="390" y="630" width="80" height="80" as="geometry"/>
                </mxCell>
                <mxCell id="30" value="" style="whiteSpace=wrap;html=1;aspect=fixed;fillColor=#e3c800;fontColor=#000000;strokeColor=#B09500;fontStyle=1;fontSize=25;" parent="1" vertex="1">
                    <mxGeometry x="480" y="630" width="80" height="80" as="geometry"/>
                </mxCell>
                <mxCell id="31" value="R4&lt;br&gt;R1" style="whiteSpace=wrap;html=1;aspect=fixed;fillColor=#e3c800;fontColor=#000000;strokeColor=#B09500;fontStyle=1;fontSize=25;" parent="1" vertex="1">
                    <mxGeometry x="570" y="630" width="80" height="80" as="geometry"/>
                </mxCell>
                <mxCell id="32" value="" style="whiteSpace=wrap;html=1;aspect=fixed;fillColor=#60a917;fontColor=#ffffff;strokeColor=#2D7600;fontStyle=1;fontSize=25;" parent="1" vertex="1">
                    <mxGeometry x="120" y="630" width="80" height="80" as="geometry"/>
                </mxCell>
                <mxCell id="33" value="&lt;font style=&quot;font-size: 25px;&quot;&gt;ProbabilitÃ©&lt;/font&gt;" style="text;html=1;strokeColor=none;fillColor=none;align=center;verticalAlign=middle;whiteSpace=wrap;rounded=0;rotation=-90;" parent="1" vertex="1">
                    <mxGeometry y="510" width="150" height="70" as="geometry"/>
                </mxCell>
                <mxCell id="34" value="&lt;font style=&quot;font-size: 25px;&quot;&gt;Impact&lt;/font&gt;" style="text;html=1;strokeColor=none;fillColor=none;align=center;verticalAlign=middle;whiteSpace=wrap;rounded=0;rotation=0;" parent="1" vertex="1">
                    <mxGeometry x="300" y="720" width="150" height="70" as="geometry"/>
                </mxCell>
            </root>
        </mxGraphModel>
    </diagram>
</mxfile>